<svg width="24" height="21" viewBox="0 0 24 21" fill="none" xmlns="http://www.w3.org/2000/svg">
<path d="M4.72694 11.8122C5.96544 10.8044 7.4004 10.0659 8.94028 9.64378M15.1117 9.63616C16.6632 10.0576 18.1089 10.8 19.3555 11.8152M12.0001 14.0476L12.0412 1.85712M1.00732 8.20683C3.27444 6.25401 6.024 4.94527 8.96923 4.41712M15.197 4.44759C18.0806 4.9947 20.7692 6.29122 22.9928 8.20683M14.8039 14.9512C15.0828 15.0884 15.354 15.2484 15.6161 15.4297M8.39475 15.4297C8.64008 15.259 8.89456 15.1082 9.15666 14.9756L8.39475 15.4297Z" stroke="black" stroke-width="2" stroke-linecap="round" stroke-linejoin="round"/>
<path d="M12.0001 20.1428C12.8417 20.1428 13.5239 19.4606 13.5239 18.619C13.5239 17.7774 12.8417 17.0952 12.0001 17.0952C11.1586 17.0952 10.4763 17.7774 10.4763 18.619C10.4763 19.4606 11.1586 20.1428 12.0001 20.1428Z" fill="black" stroke="black" stroke-linecap="round" stroke-linejoin="round"/>
</svg>
