<svg width="62" height="53" viewBox="0 0 62 53" fill="none" xmlns="http://www.w3.org/2000/svg">
<path d="M46.8518 20.9473L49.4446 19.0813L49.8355 19.207L47.551 21.1713L46.8518 20.9473Z" fill="#3C3D3F"/>
<path d="M28.8333 15.4159L28.5128 12.3012L28.8404 12.4022L29.5875 15.6672L28.8333 15.4159Z" fill="#3C3D3F"/>
<path d="M61.5936 29.6713L58.9737 30.5364C58.6587 30.6404 58.3094 30.4737 58.2038 30.1538L56.9117 26.2409C56.8088 25.9292 56.9791 25.5818 57.3025 25.475L59.9223 24.6099C60.2374 24.5059 60.5867 24.6726 60.6923 24.9925L61.9844 28.9054C62.0817 29.2281 61.9087 29.5673 61.5936 29.6713ZM58.6539 29.15C58.3968 29.2349 58.2573 29.5084 58.3413 29.7627C58.4252 30.017 58.7002 30.1536 58.9572 30.0687C59.2142 29.9839 59.3538 29.7104 59.2698 29.4561C59.1859 29.2018 58.9109 29.0651 58.6539 29.15ZM60.8924 28.4108C60.6354 28.4957 60.4958 28.7692 60.5798 29.0235C60.6637 29.2778 60.9387 29.4145 61.1957 29.3296C61.4528 29.2447 61.5923 28.9712 61.5083 28.7169C61.4244 28.4626 61.1494 28.326 60.8924 28.4108ZM60.3237 27.5797C60.1247 27.6454 60.0131 27.8642 60.0781 28.0611C60.1431 28.258 60.3631 28.3673 60.5621 28.3016C60.761 28.2359 60.8727 28.017 60.8077 27.8202C60.7399 27.6151 60.5227 27.514 60.3237 27.5797ZM59.912 26.3328C59.713 26.3985 59.6013 26.6173 59.6664 26.8142C59.7314 27.0111 59.9514 27.1204 60.1503 27.0547C60.3493 26.989 60.461 26.7702 60.3959 26.5733C60.3309 26.3764 60.1109 26.2671 59.912 26.3328ZM60.0353 25.0912C59.8031 25.1679 59.6748 25.4195 59.7506 25.6492C59.8264 25.8789 60.0794 26.0046 60.3116 25.9279C60.5437 25.8513 60.6721 25.5996 60.5963 25.3699C60.5177 25.1321 60.2674 25.0146 60.0353 25.0912Z" fill="#5A6853"/>
<path d="M54.3611 27.9564L47.4684 25.7109C47.3445 25.67 47.2847 25.5168 47.3297 25.3746L48.2846 22.5302C48.3071 22.4591 48.3516 22.3989 48.4152 22.3688C48.4761 22.3305 48.5396 22.3277 48.6002 22.3441L55.4929 24.5896L54.3611 27.9564Z" fill="#7B8974"/>
<path d="M54.4912 22.8643C52.3497 22.1431 48.8014 21.004 48.8014 21.004L28.4973 14.426L26.4779 20.4513L46.771 27.0238L45.6421 30.3715C45.6421 30.3715 50.6471 35.5602 51.6586 35.2262C52.5209 34.9415 53.8806 34.4925 53.8806 34.4925C53.8806 34.4925 57.696 29.2843 57.8451 28.3435C58.0341 27.1894 56.0299 23.3752 54.4912 22.8643Z" fill="#5A6853"/>
<path d="M59.2281 26.3221C59.7319 27.8479 58.889 29.5 57.3469 30.0092C55.8048 30.5184 54.1439 29.6931 53.6401 28.1673C53.1363 26.6415 53.9792 24.9894 55.5212 24.4802C57.0606 23.9628 58.7215 24.7881 59.2281 26.3221Z" fill="#7B8974"/>
<path d="M58.8135 26.459C59.2415 27.7551 58.5297 29.1637 57.2115 29.599C55.9015 30.0315 54.4853 29.3347 54.0546 28.0304C53.6266 26.7343 54.3384 25.3256 55.6567 24.8904C56.9666 24.4578 58.3828 25.1547 58.8135 26.459ZM55.7136 25.0626C54.4948 25.4651 53.8305 26.767 54.2287 27.9729C54.6269 29.1787 55.9358 29.8291 57.1546 29.4267C58.3733 29.0243 59.0376 27.7223 58.6394 26.5165C58.2412 25.3106 56.9323 24.6602 55.7136 25.0626Z" fill="#3C3D3F"/>
<path d="M52.7746 19.7825L51.3634 19.3128L47.129 31.6131L48.5402 32.0828L52.7746 19.7825Z" fill="#7B8974"/>
<path d="M25.2318 15.6995L10.2453 10.8434L9.61676 12.718L24.6032 17.5742L25.2318 15.6995Z" fill="#7B8974"/>
<path d="M47.2875 25.525L24.6463 18.1903C24.5225 18.1493 24.4515 18.0181 24.4909 17.8868L25.3222 15.4198C25.3643 15.2968 25.4971 15.2256 25.6293 15.2638L48.2705 22.5986L47.2875 25.525Z" fill="#7B8974"/>
<path d="M48.7315 19.8347L28.8544 13.3938L28.7469 13.7145L48.624 20.1554L48.7315 19.8347Z" fill="#3C3D3F"/>
<path d="M38.65 17.7187L38.3355 17.6169L37.8007 19.2119L38.1151 19.3138L38.65 17.7187Z" fill="#3C3D3F"/>
<path d="M40.2353 18.2333L39.9208 18.1314L39.386 19.7264L39.7005 19.8283L40.2353 18.2333Z" fill="#3C3D3F"/>
<path d="M41.8229 18.7398L41.5084 18.638L40.9736 20.233L41.288 20.3349L41.8229 18.7398Z" fill="#3C3D3F"/>
<path d="M5.38085 8.60376C5.25699 8.56278 5.11317 8.62847 5.07377 8.75975L4.19752 11.369C4.15541 11.492 4.22075 11.6342 4.35291 11.6725L7.76079 12.7761L8.79144 9.71559L5.38085 8.60376ZM7.94362 11.2692C7.83978 11.5673 7.51611 11.7288 7.2105 11.6386L5.25333 11.0021C4.9533 10.9011 4.7815 10.5757 4.88535 10.2776L4.96399 10.0424C5.06513 9.73604 5.39709 9.57184 5.69711 9.67292L7.65429 10.3094C7.9626 10.4078 8.12611 10.7359 8.02226 11.034L7.94362 11.2692Z" fill="#7B8974"/>
<path d="M8.79145 9.71558L10.2859 10.705L9.56407 12.863L7.7608 12.7761L8.79145 9.71558Z" fill="#5A6853"/>
<path d="M52.5323 31.6626L52.3048 30.9735L52.1007 30.9681C52.0382 30.8068 51.9675 30.6482 51.8994 30.4978L52.0327 30.3446L51.6836 29.7049L51.482 29.735C51.3891 29.5928 51.2935 29.4425 51.2006 29.3003L51.3092 29.128L50.8548 28.5593L50.6641 28.6223C50.549 28.4965 50.4339 28.3708 50.3105 28.2477L50.3861 28.059L49.8402 27.5752L49.6603 27.6709C49.5231 27.5616 49.3885 27.4605 49.2457 27.3621L49.291 27.1652L48.6673 26.7798L48.5065 26.9056C48.3525 26.8291 48.1986 26.7526 48.0446 26.6761L48.0513 26.4737L47.3661 26.2087L47.2328 26.3619C47.0677 26.3072 46.9052 26.2608 46.7345 26.2171L46.7053 26.0175L45.9863 25.8728L45.8777 26.0451C45.7041 26.0206 45.5305 25.996 45.3623 25.9879L45.3 25.7992L44.5665 25.7776L44.4909 25.9663C44.3171 25.9691 44.146 25.9801 43.9694 26.002L43.8739 25.8243L43.1452 25.9285L43.0999 26.1254C42.9286 26.1638 42.7657 26.1994 42.5972 26.2459L42.4712 26.0873L41.7748 26.3173L41.7681 26.5197C41.605 26.5826 41.4446 26.6538 41.2925 26.7222L41.1388 26.591L40.4913 26.9413L40.5204 27.1409C40.3765 27.2339 40.2242 27.3297 40.0802 27.4227L39.9071 27.3161L39.3307 27.7703L39.393 27.959C39.2654 28.0739 39.1378 28.1888 39.013 28.3119L38.8231 28.2381L38.3316 28.7825L38.4271 28.9602C38.316 29.097 38.2131 29.231 38.113 29.3733L37.9146 29.3296L37.522 29.9505L37.6479 30.1091C37.5698 30.2622 37.4916 30.4154 37.4135 30.5686L37.2094 30.5632L36.9378 31.2442L37.0914 31.3754C37.0353 31.5395 36.9874 31.7009 36.9423 31.8705L36.7408 31.9006L36.5903 32.6144L36.7634 32.721C36.7375 32.8933 36.7117 33.0656 36.7024 33.2324L36.5117 33.2954L36.4853 34.0228L36.6751 34.0966C36.6768 34.2689 36.6869 34.4384 36.7079 34.6134L36.528 34.7092L36.6285 35.4312L36.8268 35.4748C36.8644 35.6444 36.8993 35.8057 36.9451 35.9725L36.7844 36.0984L37.012 36.7874L37.216 36.7928C37.2785 36.9542 37.3492 37.1127 37.4173 37.2631L37.284 37.4163L37.6332 38.0561L37.8347 38.026C37.9276 38.1681 38.0232 38.3185 38.1161 38.4607L38.0075 38.633L38.462 39.2017L38.6526 39.1387C38.7677 39.2644 38.8828 39.3902 39.0062 39.5132L38.9306 39.7019L39.4765 40.1858L39.6564 40.09C39.7936 40.1994 39.9282 40.3005 40.071 40.3989L40.0257 40.5958L40.6467 40.973L40.8075 40.8471C40.9615 40.9236 41.1154 41.0002 41.2694 41.0767L41.2627 41.2791L41.9479 41.5441L42.0812 41.3909C42.2463 41.4455 42.4088 41.492 42.5795 41.5356L42.6087 41.7353L43.3277 41.88L43.4363 41.7076C43.6099 41.7322 43.7835 41.7567 43.9517 41.7649L44.014 41.9536L44.7475 41.9752L44.8231 41.7865C44.9969 41.7837 45.168 41.7727 45.3446 41.7507L45.4401 41.9284L46.1688 41.8243L46.2142 41.6273C46.3854 41.589 46.5483 41.5534 46.7169 41.5068L46.8428 41.6654L47.5392 41.4355L47.5459 41.2331C47.709 41.1701 47.8694 41.099 48.0215 41.0305L48.1752 41.1618L48.8227 40.8115L48.7963 40.6201C48.943 40.5352 49.0925 40.4313 49.2365 40.3382L49.4096 40.4448L49.9833 39.9825L49.921 39.7938C50.0486 39.6789 50.1762 39.564 50.301 39.4409L50.4909 39.5147L50.9824 38.9703L50.8869 38.7926C50.998 38.6558 51.1009 38.5217 51.201 38.3795L51.3994 38.4232L51.792 37.8023L51.6661 37.6437C51.7442 37.4905 51.8224 37.3374 51.9005 37.1842L52.1046 37.1896L52.3789 36.5168L52.2253 36.3855C52.2814 36.2214 52.3293 36.0601 52.3744 35.8905L52.576 35.8604L52.7264 35.1465L52.5533 35.04C52.5792 34.8677 52.605 34.6954 52.6143 34.5285L52.805 34.4656L52.8315 33.7381L52.6416 33.6644C52.6399 33.4921 52.6299 33.3225 52.6088 33.1475L52.7887 33.0517L52.6882 32.3298L52.4899 32.2861C52.4523 32.1166 52.4174 31.9553 52.3716 31.7885L52.5323 31.6626Z" fill="#3C3D3F"/>
<path d="M5.40445 12.0167L1.05792 10.6044L0.897922 11.0666L4.15164 12.121L5.40445 12.0167Z" fill="#5A6853"/>
<path d="M43.3393 29.8855C41.1256 30.6165 39.9143 32.9906 40.6375 35.1809C41.3608 37.3711 43.7476 38.5571 45.9613 37.8262C48.1749 37.0952 49.3862 34.7211 48.663 32.5308C47.9398 30.3406 45.5612 29.1518 43.3393 29.8855ZM41.9849 36.7829C41.4828 36.3483 41.0862 35.7878 40.8641 35.1152C40.642 34.4425 40.6241 33.7479 40.7714 33.1079C41.2978 33.1706 41.8898 33.7939 42.1823 34.6799C42.4749 35.5658 42.3787 36.4163 41.9849 36.7829ZM45.8909 37.6129C45.211 37.8374 44.5103 37.8595 43.8658 37.7175C43.9324 37.1952 44.5648 36.6043 45.4602 36.3086C46.3556 36.0129 47.2211 36.1001 47.5801 36.4911C47.1468 36.9889 46.5707 37.3884 45.8909 37.6129ZM43.8431 31.4113C42.9477 31.707 42.0822 31.6198 41.7232 31.2288C42.1648 30.7282 42.7326 30.3315 43.4124 30.107C44.0923 29.8825 44.7929 29.8604 45.4375 30.0024C45.3819 30.5302 44.7468 31.1129 43.8431 31.4113ZM47.1209 33.04C46.8284 32.1541 46.9218 31.2954 47.3184 30.937C47.8205 31.3716 48.2171 31.9321 48.4392 32.6048C48.6613 33.2774 48.6792 33.972 48.5319 34.612C48.0082 34.5575 47.4162 33.9342 47.1209 33.04Z" fill="#7B8974"/>
<path d="M42.9092 34.4308C43.2234 35.3823 44.2574 35.8961 45.2191 35.5785C46.1808 35.261 46.7056 34.2325 46.3913 33.281C46.0771 32.3294 45.0432 31.8156 44.0815 32.1332C43.1197 32.4508 42.595 33.4792 42.9092 34.4308Z" fill="#5A6853"/>
</svg>
