<svg width="49" height="49" viewBox="0 0 49 49" fill="none" xmlns="http://www.w3.org/2000/svg">
<path d="M49 0C49 0 43.9692 1.02554 37.8644 7.11421L41.8858 11.1356C47.9745 5.03082 49 0 49 0Z" fill="#7B8974"/>
<path d="M41.8616 11.1599C41.8696 11.1518 41.8777 11.1437 41.8858 11.1356L37.8644 7.1142C37.8563 7.12228 37.8482 7.13035 37.8401 7.13843C35.1592 9.81938 18.0803 26.8983 9.49637 35.4822L13.5178 39.5036C22.1017 30.9197 39.1806 13.8408 41.8616 11.1599Z" fill="#5A6853"/>
<path d="M39.2694 18.266L41.1106 16.4248L40.1173 12.9041C39.2533 13.7681 38.155 14.8663 36.8953 16.1261L39.2694 18.266Z" fill="#4B5844"/>
<path d="M32.5751 7.88942L30.734 9.73055L32.8739 12.1046C34.1336 10.8449 35.2319 9.7467 36.0959 8.88266L32.5751 7.88942Z" fill="#4B5844"/>
<path d="M2.64866 44.3406L3.64997 45.342L4.65937 46.3513C4.65937 46.3513 5.89487 47.1266 8.97957 44.0419C9.66596 43.3555 11.3133 41.7081 13.5259 39.4955L9.50446 35.4741C7.29994 37.6786 5.65261 39.326 4.95815 40.0204C1.87344 43.1051 2.64866 44.3406 2.64866 44.3406Z" fill="#7B8974"/>
<path d="M5.83026 46.3029L8.52736 49L12.4115 45.1159L13.3482 39.6651C11.2245 41.7889 9.64173 43.3716 8.96342 44.0499C7.55834 45.4631 6.5328 46.0687 5.83026 46.3029Z" fill="#4B5844"/>
<path d="M9.33487 35.6437L3.88415 36.5804L0 40.4646L2.6971 43.1617C2.93128 42.4672 3.53692 41.4417 4.95007 40.0204C5.62838 39.3502 7.21111 37.7675 9.33487 35.6437Z" fill="#4B5844"/>
<path d="M4.40691 44.8699L11.5044 37.7724L11.2246 37.4927L4.12712 44.5901L4.40691 44.8699Z" fill="#4B5844"/>
<path d="M33.7883 19.2286L33.9767 19.0402L29.9569 15.0204L29.7685 15.2088L33.7883 19.2286Z" fill="#7B8974"/>
<path d="M22.6619 30.3603L22.8504 30.1719L18.8306 26.1521L18.6422 26.3405L22.6619 30.3603Z" fill="#7B8974"/>
</svg>
