<svg width="35" height="35" viewBox="0 0 35 35" fill="none" xmlns="http://www.w3.org/2000/svg">
<path d="M8.75 12.25C8.75 11.7859 8.93438 11.3408 9.26256 11.0126C9.59075 10.6844 10.0359 10.5 10.5 10.5H24.5C24.9641 10.5 25.4092 10.6844 25.7374 11.0126C26.0656 11.3408 26.25 11.7859 26.25 12.25V15.75C26.25 16.2141 26.0656 16.6592 25.7374 16.9874C25.4092 17.3156 24.9641 17.5 24.5 17.5H10.5C10.0359 17.5 9.59075 17.3156 9.26256 16.9874C8.93438 16.6592 8.75 16.2141 8.75 15.75V12.25ZM24.5 12.25H10.5V15.75H24.5V12.25ZM8.75 20.125C8.75 19.8929 8.84219 19.6704 9.00628 19.5063C9.17038 19.3422 9.39294 19.25 9.625 19.25H25.5C25.7321 19.25 25.9546 19.3422 26.1187 19.5063C26.2828 19.6704 26.375 19.8929 26.375 20.125C26.375 20.3571 26.2828 20.5796 26.1187 20.7437C25.9546 20.9078 25.7321 21 25.5 21H9.625C9.39294 21 9.17038 20.9078 9.00628 20.7437C8.84219 20.5796 8.75 20.3571 8.75 20.125ZM9.625 22.75C9.39294 22.75 9.17038 22.8422 9.00628 23.0063C8.84219 23.1704 8.75 23.3929 8.75 23.625C8.75 23.8571 8.84219 24.0796 9.00628 24.2437C9.17038 24.4078 9.39294 24.5 9.625 24.5H25.5C25.7321 24.5 25.9546 24.4078 26.1187 24.2437C26.2828 24.0796 26.375 23.8571 26.375 23.625C26.375 23.3929 26.2828 23.1704 26.1187 23.0063C25.9546 22.8422 25.7321 22.75 25.5 22.75H9.625ZM5.25 10.5C5.25 9.10761 5.80312 7.77226 6.78769 6.78769C7.77226 5.80312 9.10761 5.25 10.5 5.25H24.5C25.8924 5.25 27.2277 5.80312 28.2123 6.78769C29.1969 7.77226 29.75 9.10761 29.75 10.5V24.5C29.75 25.8924 29.1969 27.2277 28.2123 28.2123C27.2277 29.1969 25.8924 29.75 24.5 29.75H10.5C9.10761 29.75 7.77226 29.1969 6.78769 28.2123C5.80312 27.2277 5.25 25.8924 5.25 24.5V10.5ZM10.5 7C9.57174 7 8.6815 7.36875 8.02513 8.02513C7.36875 8.6815 7 9.57174 7 10.5V24.5C7 25.4283 7.36875 26.3185 8.02513 26.9749C8.6815 27.6313 9.57174 28 10.5 28H24.5C25.4283 28 26.3185 27.6313 26.9749 26.9749C27.6313 26.3185 28 25.4283 28 24.5V10.5C28 9.57174 27.6313 8.6815 26.9749 8.02513C26.3185 7.36875 25.4283 7 24.5 7H10.5Z" fill="black"/>
<circle cx="25.875" cy="8.875" r="7.25" fill="white" stroke="black" stroke-width="1.75"/>
<rect x="25" y="4" width="1.75" height="9.75" rx="0.875" fill="black"/>
<rect x="30.75" y="8" width="1.75" height="9.75" rx="0.875" transform="rotate(90 30.75 8)" fill="black"/>
</svg>
